<svg width="120" height="120" viewBox="0 0 120 120" fill="none" xmlns="http://www.w3.org/2000/svg">
<path d="M67.365 119.745C65.8012 119.471 64.1812 118.729 63.2625 117.907C62.6388 117.253 62.2829 116.389 62.265 115.485C62.265 114.566 62.7337 113.276 63.4762 111.99C63.9262 111.266 64.2787 110.486 64.53 109.665C64.6875 109.099 65.0175 108.18 65.2725 107.595L65.7225 106.522L65.8387 99.3562C65.8987 95.3924 66.015 91.7212 66.1125 91.1512C66.3675 89.5087 66.795 87.9074 67.3612 86.3474L67.7925 85.3124L67.1662 84.9412C66.6 84.5887 66.1312 84.1012 64.275 81.8924C61.9912 79.1962 58.9837 77.7112 54.7237 77.2049C53.3362 77.0699 51.93 76.9687 50.5237 76.9124C44.2725 76.6199 40.6987 75.3112 37.4775 72.1462C35.0737 69.7837 33.825 67.0274 33.3187 62.9662C32.6362 57.4762 31.875 54.6637 30.4687 52.3799C30.1221 51.8159 29.7228 51.2861 29.2762 50.7974L28.71 50.2312L27.4612 51.0337C26.7787 51.4837 25.8187 52.0499 25.35 52.3049C23.7862 53.1637 22.3012 54.1199 20.8762 55.1549C17.3812 57.6937 13.5712 60.8774 11.4825 62.9662C10.545 63.9037 10.0575 64.3124 9.83998 64.2749C8.41498 64.0612 9.50623 57.8887 11.8312 53.2387C14.8012 47.2424 19.8 41.7149 25.5825 37.9837C30.33 34.9162 38.0062 30.6974 41.5575 29.2124C47.865 26.5762 56.0287 23.7224 61.6162 22.1999C62.79 21.8662 63.51 21.5737 63.9975 21.2437C65.0925 20.4824 66.165 20.1112 67.395 20.0924C68.43 20.0737 68.5275 20.0549 69.525 19.3874C70.6987 18.6262 71.0475 18.5849 72.2212 18.9974L72.9825 19.2712L73.92 18.6262L74.8575 17.9999L76.2037 18.0187C77.2387 18.0374 77.7075 17.9999 78.1575 17.8049C78.7237 17.5499 78.7425 17.5124 78.9 16.5749C79.2525 14.5424 79.29 13.5262 79.0762 12.2962C78.8025 10.6762 78.765 4.38744 79.0387 3.15369C79.3312 1.82619 79.5262 1.55244 80.5237 1.06494C82.0087 0.341191 83.1225 0.127441 85.68 0.127441C88.8037 0.127441 90.3862 0.558691 91.56 1.69119C92.6137 2.70744 92.79 5.08869 92.2425 10.6762C91.9087 13.8974 91.8712 14.7974 91.9687 16.9049C92.0062 18.2512 92.1037 19.5224 92.145 19.6987C92.2237 20.0324 92.3025 20.0512 93.435 20.0699C94.5487 20.0887 94.7437 20.1487 95.7975 20.6962C96.8137 21.2249 97.575 21.8699 97.7325 22.3387C97.7512 22.4362 97.9275 22.4362 98.2387 22.3387C98.8425 22.1624 99.3712 22.3574 99.8025 22.8862C100.057 23.2199 100.211 23.2762 100.8 23.2762C101.602 23.2762 101.895 23.4712 102.559 24.4499C102.869 24.8892 103.295 25.2344 103.789 25.4474C104.884 25.9949 106.369 27.5174 106.935 28.7287C107.812 30.5249 107.989 32.6137 107.441 34.4887C107.246 35.1937 107.246 35.2124 107.655 35.8949C108.514 37.3612 108.829 39.1574 108.476 40.6799L108.281 41.5799L108.866 42.1649C111.776 45.0749 111.345 49.8224 107.794 54.0599C107.397 54.544 107.062 55.0756 106.796 55.6424C106.114 57.4574 105.33 58.7287 104.317 59.7824L103.282 60.8362H102.229C101.175 60.8362 99.69 60.4837 98.79 60.0149C98.4187 59.8199 98.4 59.8199 98.4787 60.0524C98.715 60.9112 99.3 64.4062 99.495 66.3412C99.8062 69.3112 99.7087 73.6274 99.3 75.4837C99.0013 76.8585 98.5008 78.1816 97.815 79.41C97.425 80.0362 97.4062 80.1712 97.4812 80.9324C97.5975 82.005 97.3462 83.8049 96.915 84.9937C96.3862 86.3812 96.1912 87.0262 96.075 87.7274C95.9775 88.3312 95.9775 88.3312 96.4087 88.3312C96.975 88.3312 97.2862 88.6649 97.2862 89.3287C97.2862 89.6212 97.0312 91.2037 96.72 92.8237C95.8612 97.3762 95.8012 97.8824 95.8012 102.296C95.7825 106.849 95.7825 106.807 96.8175 107.49L99.1425 108.994C101.143 110.321 103.285 111.422 105.529 112.275C108.791 113.565 109.241 113.895 109.241 114.99C109.241 115.477 109.144 115.654 108.735 116.044C107.486 117.255 105.022 117.529 100.061 117C97.4832 116.758 94.8955 116.635 92.3062 116.629C85.47 116.531 84.4725 116.295 83.5762 114.596C83.07 113.621 83.1675 112.35 83.8687 110.261C84.18 109.342 84.4537 108.405 84.69 107.449C85.1587 105.184 84.8475 102.487 83.7525 99.4424L82.815 96.8437C81.8962 94.2075 81.39 89.3812 81.9375 88.2899C82.035 88.0762 82.2112 88.035 82.68 88.0537L83.265 88.1137L83.7525 87.0974C84.1237 86.2949 84.5325 85.77 85.6462 84.6562L87.0712 83.2312L86.9925 82.3124C86.9325 81.4349 85.7812 77.1749 85.6237 77.1937C85.5637 77.1937 85.2525 77.6249 84.9 78.1687C84.0412 79.4587 82.1475 81.4499 81.0712 82.1737C80.6025 82.4849 80.2125 82.8562 80.2125 82.9762C80.1937 83.505 79.7437 84.5399 79.1962 85.2599C78.6675 85.9649 78.63 86.0812 78.7087 86.7037C78.8437 87.6224 78.5512 90.5699 78.2025 92.1149C77.8864 93.2621 77.4541 94.3741 76.9125 95.4337C75.5662 98.2274 74.55 100.725 74.295 101.88C74.1108 102.992 73.9931 104.114 73.9425 105.24C73.8825 106.567 73.7475 107.857 73.65 108.131C73.515 108.502 73.515 108.795 73.6312 109.361C73.7287 109.77 73.7887 110.689 73.7662 111.412C73.7475 112.41 73.8262 113.055 74.1187 114.225C74.625 116.216 74.7225 117.469 74.49 118.211C74.3325 118.68 74.1787 118.856 73.65 119.111C72.4762 119.715 69.1575 120.049 67.3612 119.737L67.365 119.745ZM72.1087 118.144C72.7912 117.949 73.38 117.364 73.38 116.835C73.38 116.599 73.185 115.916 72.9487 115.312C72.48 114.161 71.6775 111.112 71.6775 110.606C71.6775 110.351 71.6962 110.332 72.0862 110.546L72.5175 110.782V110.235C72.4549 109.73 72.3431 109.233 72.1837 108.75C71.8125 107.636 71.775 107.617 69.4087 107.479L67.8075 107.4L67.2225 107.966C66.9008 108.297 66.6189 108.665 66.3825 109.061C66.1275 109.567 66.03 110.332 66.1875 110.505C66.225 110.565 66.6187 110.505 67.0462 110.407C67.3 110.332 67.5618 110.287 67.8262 110.272C67.8262 110.291 67.395 110.644 66.8512 111.015C64.5075 112.774 63.6862 113.846 63.6862 115.215C63.6862 116.64 65.0325 117.754 67.1437 118.087C68.5875 118.301 71.4 118.361 72.105 118.147L72.1087 118.144ZM103.886 115.819C104.471 115.114 104.392 114.394 103.65 113.572C103.219 113.141 102.731 112.77 102.184 112.477C101.636 112.185 101.089 111.851 100.541 111.502C99.551 110.861 98.5338 110.261 97.4925 109.706C96.5925 109.219 95.715 108.709 94.8562 108.165L94.5037 107.891V102.521C94.5037 97.2299 94.485 97.1512 94.2112 97.2299C92.8425 97.6012 90.5775 97.7775 87.7087 97.7174L84.6037 97.6799L85.0537 98.7749C85.8937 100.845 86.325 103.62 86.325 106.804C86.325 107.996 86.2462 108.424 85.9537 109.264C85.7962 109.672 85.6612 110.085 85.5225 110.494C85.4625 110.67 85.68 110.805 86.4787 111.041C87.0637 111.217 87.9225 111.394 88.4137 111.45L89.3137 111.547L89.2162 112.447C89.1187 113.464 89.235 114.536 89.49 114.87C89.6475 115.065 90.2325 115.144 92.9475 115.26C94.9987 115.357 97.2262 115.571 98.9812 115.826C100.504 116.062 102.146 116.257 102.634 116.257C103.455 116.276 103.534 116.239 103.882 115.826L103.886 115.819ZM72.6187 106.68C72.6975 106.62 72.8137 105.566 72.855 104.317C73.0125 100.822 73.1475 100.312 74.9062 96.3674C76.35 93.1462 77.115 90.1387 77.055 88.0087L77.0175 86.7374L76.47 87.2662C75.3375 88.3987 76.1175 86.6212 77.4675 85.0387C78.4837 83.8274 78.8362 83.1637 78.99 82.0912C79.0687 81.66 79.2262 81.4462 79.89 80.9399C82.3735 79.0639 84.2871 76.5349 85.4175 73.6349C85.6912 72.9299 86.3925 70.5299 86.9812 68.3024C88.0762 64.1812 88.6612 62.4037 89.19 61.6424C89.385 61.3499 89.4637 61.2899 89.4262 61.4849C89.143 62.5323 88.9214 63.5954 88.7625 64.6687C88.605 65.6249 88.3125 67.4999 88.1175 68.8087C87.7462 71.4862 87.3562 73.2037 86.8275 74.5312L86.475 75.4312L87.4125 77.8537C88.3875 80.3324 88.8375 82.1324 88.9162 83.8687L88.9762 84.8437L88.215 85.0012C87.2102 85.179 86.3136 85.7396 85.7137 86.5649C85.05 87.5212 84.6787 88.3049 84.855 88.4774C84.9337 88.5562 85.89 88.7324 86.985 88.8674C88.6837 89.0624 89.3287 89.0624 91.575 88.9274C92.55 88.8899 93.51 88.7924 94.4662 88.6537C94.68 88.575 94.8975 88.1474 95.2462 87.0337C96.0487 84.4762 96.2025 83.5762 96.105 81.7799L96.0262 80.1974L96.435 79.6687C97.3912 78.4575 98.1337 76.2712 98.445 73.7099C98.8162 70.5862 98.1337 64.0424 96.8625 58.4174C96.2587 55.7399 96.0037 54.1387 96.0037 52.9687V51.9337L95.0475 52.0312C91.6087 52.4024 87.45 52.3049 84.9112 51.7762C83.5237 51.5024 80.0287 50.4674 79.2675 50.1337L78.6637 49.8599L78.585 50.5424C78.525 50.9137 78.4687 51.2849 78.39 51.6749C78.2737 52.0837 78.3112 52.1812 79.035 52.8862C79.935 53.8049 80.2087 54.2737 80.2087 54.8962C80.2087 55.2862 79.995 55.6012 78.9 56.7337C78.1149 57.5715 77.2438 58.3244 76.3012 58.9799L75.03 59.8387L74.4825 61.7324C72.5287 68.6662 72.1575 74.9737 73.4475 79.4849L73.7587 80.6174L73.1325 81.3974C70.7887 84.3449 69.4012 86.5912 69.1875 87.8437C69.0625 88.4604 68.9187 89.0732 68.7562 89.6812C68.25 91.6162 67.8562 94.4474 67.6837 97.5149C67.5635 100.083 67.3948 102.648 67.1775 105.21L67.08 105.971L68.055 106.264C68.6025 106.44 69.4237 106.635 69.8925 106.714C70.77 106.849 72.3937 106.811 72.645 106.676L72.6187 106.68ZM91.5825 95.9362C93.105 95.8387 94.4925 95.6024 94.7662 95.3699C94.8825 95.2912 95.0212 94.8824 95.0587 94.4699L95.1562 93.7274L93.945 94.0012C92.9887 94.1962 92.0325 94.3124 91.0725 94.3912C88.7662 94.4887 86.445 94.4287 84.1575 94.1962C83.3962 94.0799 83.3962 94.0799 83.6287 95.0737C83.8237 95.8162 83.865 95.8537 85.8562 95.9924C87.1837 96.1087 89.04 96.09 91.5787 95.9324L91.5825 95.9362ZM90.3112 92.5387C92.3025 92.3624 94.785 91.9349 95.2725 91.6799C95.43 91.6012 95.565 91.3087 95.625 90.9749L95.8012 89.9399L95.8987 89.4524L95.4112 89.5499C93.2437 89.9999 91.6012 90.1349 88.32 90.1349C85.1175 90.1349 84.7462 90.1162 83.9062 89.8237C83.5834 89.6876 83.2397 89.6077 82.89 89.5874C82.755 89.6662 82.7325 90.7799 82.8525 91.5599C82.9312 92.0287 83.01 92.1074 83.4787 92.2424C84.9637 92.6512 87.465 92.7487 90.315 92.5162L90.3112 92.5387ZM54.0637 74.9212C59.0625 73.4774 65.6062 69.2362 70.9575 63.9262C72.6975 62.1862 72.9112 61.9537 73.1437 61.1737L73.455 60.1762C73.4925 60.0974 73.1812 59.9624 72.7725 59.8649C71.7 59.6099 70.8787 58.9874 70.8787 58.4212C70.8787 58.0874 70.6837 57.7574 70.1175 57.1499C69.1987 56.1149 68.9662 55.6649 68.8687 54.6712L68.79 53.8687L67.695 53.0887C67.0687 52.6387 64.8825 51.4274 62.5575 50.2574C60.7872 49.3938 59.0544 48.4555 57.3637 47.4449C55.41 46.1362 54.1012 44.5724 53.3587 42.7199C53.2237 42.3487 53.0475 42.0374 52.9875 42.0374C52.83 42.0374 48.435 46.2749 46.56 48.2662C41.9325 53.1487 38.7487 57.3862 36.735 61.3124C36.2287 62.2874 35.6812 63.4424 35.5237 63.8699L35.2312 64.6499L35.5837 65.9587C35.7975 66.6637 36.2475 67.8149 36.6 68.4974C37.83 70.9199 39.2962 72.3824 41.7187 73.575C44.3175 74.8649 46.62 75.3149 50.4675 75.255C52.5375 75.2362 53.145 75.1762 54.06 74.9025L54.0637 74.9212ZM14.61 57.7912C17.8912 54.8812 22.4212 51.6974 27.9712 48.3974C31.605 46.2299 45.6487 39.1987 52.1137 36.3262C53.2875 35.7974 54.3412 35.3099 54.4575 35.2537C54.5737 35.1749 54.9075 34.3349 55.2187 33.3974C56.5875 29.0624 57.27 28.2037 59.7487 27.6374C60.06 27.5587 60.1387 27.4612 60.1387 27.1499C60.1387 26.5837 60.5287 25.2749 60.8625 24.6899C61.1175 24.2399 61.1175 24.2212 60.9 24.2812C60.765 24.3187 59.9437 24.5549 59.085 24.8099C47.1712 28.2487 36.7612 32.8162 27.7762 38.5199C18.1875 44.6137 12.66 51.9187 11.0587 60.6674L10.9425 61.3124L12.1162 60.1612C12.7425 59.5162 13.875 58.4624 14.6175 57.8174L14.61 57.7912ZM102.99 59.4524C103.946 58.9649 105.431 56.7187 105.979 54.9412C106.136 54.3149 106.447 53.7299 106.897 53.2424C108.341 51.6412 109.534 48.7312 109.552 46.7399C109.552 43.6349 107.794 42.4424 105.236 43.7699C104.902 43.9274 104.632 44.0437 104.591 44.0062C104.456 43.8712 105.176 43.1662 106.057 42.6187C107.209 41.8574 107.426 41.4074 107.426 39.7874C107.443 38.478 107.054 37.1955 106.312 36.1162C105.96 35.5874 105.825 35.2387 105.881 35.0212L106.234 33.7124C106.721 31.9724 106.545 29.9812 105.784 28.7137C104.651 26.8012 103.264 25.8637 101.329 25.7062L100.196 25.6274L100.86 26.3699C102.832 28.4999 103.789 31.1737 103.399 33.4612C103.204 34.6349 103.027 34.8674 101.895 35.3174L101.231 35.5912L101.31 36.4912C101.445 37.9574 101.194 39.0299 100.256 41.0024C99.7875 41.9999 99.435 42.8962 99.4762 42.9937C99.5925 43.3274 100.882 43.9499 101.899 44.2049L102.896 44.4412L102.27 44.6549C101.449 44.9099 101.272 45.2812 101.272 46.6274C101.272 47.8574 101.449 48.3674 102.345 49.7137C102.754 50.2987 103.027 50.9062 103.069 51.2549C103.147 51.8024 103.129 51.8399 102.679 51.9974C102.169 52.1406 101.644 52.2261 101.115 52.2524C99.2775 52.3687 99.1425 52.4287 98.3212 53.2087C97.5787 53.9137 97.56 53.9512 97.56 54.7312C97.56 55.8037 97.9687 57.9749 98.2237 58.2674C98.5575 58.6199 100.41 59.5387 101.134 59.6737C101.758 59.8304 102.418 59.7544 102.99 59.4599V59.4524ZM75.9375 57.9899C77.13 57.0524 78.0675 56.1149 78.5925 55.3124C78.9262 54.8249 78.945 54.7274 78.7875 54.3149C78.5137 53.6887 76.7175 52.0687 75.72 51.5812C75.0553 51.2834 74.3522 51.0802 73.6312 50.9774L72.4012 50.8199L71.64 49.8637C70.0575 47.9099 69.18 46.3874 67.9275 43.4362C66.8325 40.9349 65.8762 39.4724 64.3537 38.0249C63.7275 37.4399 63.2812 36.9524 63.3187 36.9524C63.3975 36.9524 64.14 37.3237 64.9987 37.7737C66.4237 38.5349 66.6 38.5949 67.245 38.4974C69.57 38.2237 71.6212 35.5499 72.3637 31.7999C72.5775 30.7462 73.0087 29.6699 73.4587 29.0249C73.4775 29.0062 74.3775 29.5912 75.4312 30.3524C78.1087 32.2462 78.6937 32.5387 80.2162 32.5987C81.2137 32.6362 81.78 32.5612 83.5762 32.1299C87.405 31.1924 91.545 30.8212 94.065 31.1549C95.49 31.3499 97.5412 31.9762 99.0637 32.6962C100.567 33.4012 100.86 33.4387 101.347 33.0074C101.756 32.6549 101.756 32.5987 101.756 31.2899C101.737 29.3549 101.032 27.2662 99.96 26.0174C99.4125 25.3724 97.8712 24.3187 96.345 23.5162C95.8024 23.2284 95.2624 22.9359 94.725 22.6387C94.0012 22.2074 93.1837 22.2674 90.9562 22.8524C88.3762 23.5162 87.6937 23.5162 84.7462 22.7549C82.245 22.1287 82.0912 22.1099 79.6275 22.4999C78.3187 22.6949 75.0375 22.5787 73.9425 22.2862C73.395 22.1287 72.8475 21.9749 72.3225 21.7799C71.3662 21.4087 69.705 21.3487 68.2012 21.6224C65.2125 22.1512 62.9475 23.7712 62.1262 25.9762C61.695 27.0899 61.755 27.6187 62.3212 27.9674C63.2212 28.5337 64.41 30.0787 64.41 30.6824C64.41 30.7199 64.1175 30.4687 63.7837 30.1162C62.9437 29.2387 62.1825 28.8449 61.2825 28.8449C60.7002 28.8611 60.134 29.0396 59.6476 29.3603C59.1613 29.681 58.7742 30.1311 58.53 30.6599C58.2672 31.35 58.0455 32.0549 57.8662 32.7712C57.3187 34.7624 56.8312 35.8199 55.7962 37.2262C54.8775 38.4974 54.7425 39.0637 55.0725 40.4887C55.8937 44.0812 57.3187 45.5287 63.2737 48.9074C66.3975 50.6849 67.9987 51.6824 69.1725 52.5599C70.0725 53.2237 70.0912 53.2649 70.0125 53.7712C69.8362 54.9449 70.5787 56.2124 72.045 57.2474C72.4162 57.5024 72.6487 57.7762 72.6487 57.9712C72.6487 58.3237 73.6462 58.8112 74.3662 58.8112C74.775 58.8112 75.09 58.6349 75.93 57.9899H75.9375ZM100.02 51.4049C102.285 51.4837 102.401 51.3074 101.194 49.9012C99.9225 48.4349 99.5737 47.2462 100.042 45.9374L100.237 45.4312L99.435 45.0412C99.1612 44.9062 98.8875 44.7674 98.6137 44.6699C98.4787 45.1987 98.34 45.7049 98.2237 46.2337C97.9312 47.4262 97.5787 50.5124 97.56 51.8212C97.56 51.9374 97.755 51.8999 98.0887 51.6862C98.5575 51.4124 98.7937 51.3749 100.024 51.4124L100.02 51.4049ZM92.4225 51.2887C93.7912 51.2099 95.1975 51.1124 95.5687 51.0524L96.2512 50.9549L96.33 48.7087C96.4462 45.5062 96.915 43.6124 98.3025 40.5824C99.2775 38.4337 99.7087 36.5587 99.495 35.1524C99.4162 34.5487 99.3787 34.5074 98.5575 34.1549C97.0537 33.5578 95.4876 33.1314 93.8887 32.8837C92.3475 32.6699 87.8137 32.7862 86.115 33.1199C85.41 33.2362 84.1237 33.5099 83.265 33.7237C81.135 34.2112 80.0025 34.1549 78.3825 33.4499C76.7812 32.7449 75.765 32.1037 74.8087 31.2037C74.0475 30.4987 73.9687 30.4612 73.7737 30.6974C73.6162 30.8737 73.5375 31.4024 73.4812 32.5349C73.4212 34.2749 73.1475 35.1899 72.3862 36.4199C72.2171 36.673 72.0727 36.9417 71.955 37.2224C71.955 37.2824 72.54 37.9649 73.2637 38.7074C75.765 41.3062 76.995 41.9699 78.9675 41.8312C79.6125 41.7712 80.0625 41.7937 80.0625 41.8687C80.0625 42.0262 78.7912 43.0199 78.2662 43.2937C78.0112 43.4287 77.955 43.5674 77.9925 43.8599L78.3037 45.9112C78.48 47.0849 78.615 47.6287 78.7912 47.7862C79.26 48.1762 81.6825 49.4287 83.205 50.0512C85.1962 50.8537 86.2912 51.1462 87.8137 51.2812C89.6887 51.4387 89.7262 51.4387 92.4225 51.2812V51.2887ZM76.2712 49.1399C76.3087 49.0799 76.1737 47.9474 75.9187 46.6387C75.6075 44.8612 75.4312 44.2162 75.2362 44.0399C75.1012 43.9237 74.3775 43.4137 73.6537 42.8887C72.7028 42.2049 71.8018 41.4542 70.9575 40.6424L69.6112 39.3149L68.8875 39.6862L68.1262 40.0949C68.1903 40.4 68.295 40.6952 68.4375 40.9724C68.6512 41.4412 69.0825 42.5924 69.3937 43.5299C70.215 45.9712 70.86 47.1449 72.48 49.2712L73.0837 50.0737L74.235 50.2499C74.88 50.3474 75.525 50.4862 75.7012 50.5424C75.975 50.6587 76.0125 50.6024 76.0912 49.9762C76.1287 49.7024 76.1887 49.4099 76.2675 49.1362L76.2712 49.1399ZM101.017 24.8437C102.015 24.7462 102.191 24.6074 101.76 24.1612C101.486 23.8874 100.86 23.8687 100.354 24.1012C100.02 24.2587 99.945 24.2174 99.4162 23.6512C98.8687 23.0474 98.8312 23.0249 98.145 23.1037C97.5187 23.1824 97.4212 23.1637 97.3425 22.9087C97.0986 22.4898 96.7955 22.1084 96.4425 21.7762C95.9989 21.2722 95.4443 20.8781 94.8225 20.6249C93.6112 20.1562 92.9287 20.2162 91.7737 20.8612C88.4325 22.6762 88.5712 22.6574 85.3462 21.8362C82.3387 21.0749 80.0925 20.2949 79.3687 19.8037C78.765 19.3949 77.475 18.9449 76.3987 18.8062C75.5962 18.6899 75.09 18.8662 74.3287 19.4887L73.92 19.8224L74.2912 20.4674C74.7975 21.3674 74.7412 21.4237 73.98 20.7599C73.1587 20.0774 72.1837 19.6087 71.5575 19.5862C71.1075 19.5862 69.78 20.1712 69.6225 20.4262C69.5625 20.5049 69.975 20.6024 70.5225 20.6399C71.0887 20.6999 71.8687 20.8949 72.3975 21.1087C73.7662 21.6937 74.4675 21.8887 75.7162 22.0087C77.085 22.1437 79.5637 21.9899 79.8562 21.7537C80.0137 21.6187 80.4412 21.5962 81.3412 21.6749C82.5337 21.7537 83.0212 21.8699 85.8525 22.6312C87.495 23.0812 88.6462 23.0399 90.6 22.5149C91.5 22.2599 92.6325 22.0087 93.1012 21.9487C93.9037 21.8699 94.0575 21.9112 95.31 22.4774C97.3012 23.3774 98.3587 23.9437 98.9437 24.4687C99.5287 24.9749 99.6075 24.9749 101.014 24.8587L101.017 24.8437ZM89.8837 21.4274L91.0762 20.8012L91.0387 19.5899C91.02 18.7499 90.9787 17.9287 90.9412 17.1112L90.8437 15.8624L89.6512 16.7812C88.9462 17.3287 88.2637 17.7374 87.9712 17.7974C87.1125 17.9549 82.875 17.7974 82.4812 17.5837C81.9567 17.1962 81.4661 16.7646 81.015 16.2937L79.92 15.1799L79.9012 15.8437C79.9012 16.1962 79.8637 16.7999 79.785 17.1712C79.6875 17.8762 79.6875 17.8949 80.4487 18.8512C80.8575 19.3799 81.1912 19.8487 81.1912 19.9049C81.1912 20.2762 86.835 22.0349 88.1062 22.0537C88.515 22.0537 89.025 21.8774 89.8837 21.4274ZM87.6187 16.9912C89.025 16.7174 89.7075 15.7012 90.2362 13.1249C90.7837 10.3499 91.0575 5.99619 90.8025 4.13994C90.5662 2.45994 88.6912 1.71744 85.1175 1.83369C82.89 1.91244 81.9712 2.12619 81.21 2.77119C80.7412 3.16119 80.7412 3.20244 80.5275 5.05494C80.1375 8.60994 80.7225 13.6687 81.7387 15.5624C82.2262 16.4812 82.6575 16.8112 83.5537 16.9687C84.57 17.1449 86.7375 17.1449 87.615 16.9874L87.6187 16.9912Z" fill="black"/>
</svg>
