<svg width="16" height="16" viewBox="0 0 16 16" fill="none" xmlns="http://www.w3.org/2000/svg">
<path d="M6.00025 0.277334C6.09787 0.395951 6.15767 0.541116 6.17193 0.694073C6.18619 0.84703 6.15426 1.00075 6.08025 1.13537C5.50209 2.19689 5.20015 3.38676 5.20222 4.59551C5.20222 8.61668 8.48035 11.8728 12.5205 11.8728C13.0475 11.8728 13.5606 11.8178 14.0536 11.7128C14.2047 11.6801 14.3621 11.6926 14.5062 11.7488C14.6503 11.805 14.7746 11.9024 14.8636 12.0288C14.9576 12.1603 15.0055 12.3191 14.9999 12.4806C14.9943 12.6421 14.9355 12.7972 14.8326 12.9219C14.0483 13.8853 13.0588 14.6616 11.9363 15.1941C10.8139 15.7267 9.58672 16.002 8.34435 16C3.73416 16 0 12.2858 0 7.70964C0 4.2655 2.11409 1.31138 5.12421 0.0593244C5.27416 -0.00404638 5.44062 -0.0170529 5.59858 0.0222585C5.75655 0.06157 5.8975 0.151077 6.00025 0.277334V0.277334Z" fill="black"/>
<path d="M10.7941 3.14746C10.8085 3.10415 10.8361 3.06646 10.8731 3.03975C10.91 3.01304 10.9545 2.99866 11.0001 2.99866C11.0457 2.99866 11.0902 3.01304 11.1272 3.03975C11.1642 3.06646 11.1918 3.10415 11.2061 3.14746L11.5931 4.30951C11.7662 4.82753 12.1722 5.23355 12.6902 5.40655L13.8522 5.79357C13.8955 5.80791 13.9332 5.83553 13.9599 5.87252C13.9867 5.9095 14.001 5.95396 14.001 5.99958C14.001 6.0452 13.9867 6.08966 13.9599 6.12664C13.9332 6.16362 13.8955 6.19125 13.8522 6.20559L12.6902 6.5926C12.4347 6.67772 12.2026 6.82118 12.0121 7.01159C11.8217 7.20201 11.6783 7.43416 11.5931 7.68965L11.2061 8.8517C11.1918 8.895 11.1642 8.93269 11.1272 8.9594C11.0902 8.98611 11.0457 9.00049 11.0001 9.00049C10.9545 9.00049 10.91 8.98611 10.8731 8.9594C10.8361 8.93269 10.8085 8.895 10.7941 8.8517L10.4071 7.68965C10.322 7.43416 10.1785 7.20201 9.9881 7.01159C9.79768 6.82118 9.56553 6.67772 9.31005 6.5926L8.148 6.20559C8.10469 6.19125 8.06701 6.16362 8.04029 6.12664C8.01358 6.08966 7.99921 6.0452 7.99921 5.99958C7.99921 5.95396 8.01358 5.9095 8.04029 5.87252C8.06701 5.83553 8.10469 5.80791 8.148 5.79357L9.31005 5.40655C9.56553 5.32143 9.79768 5.17798 9.9881 4.98756C10.1785 4.79714 10.322 4.56499 10.4071 4.30951L10.7941 3.14746V3.14746ZM13.8632 0.0983307C13.8731 0.0698558 13.8916 0.0451644 13.9162 0.0276893C13.9407 0.0102143 13.9701 0.000823975 14.0002 0.000823975C14.0304 0.000823975 14.0598 0.0102143 14.0843 0.0276893C14.1089 0.0451644 14.1274 0.0698558 14.1373 0.0983307L14.3953 0.872363C14.5103 1.21838 14.7813 1.48939 15.1273 1.60439L15.9013 1.8624C15.9298 1.87228 15.9545 1.89078 15.972 1.91533C15.9894 1.93988 15.9988 1.96927 15.9988 1.99941C15.9988 2.02955 15.9894 2.05894 15.972 2.08349C15.9545 2.10804 15.9298 2.12654 15.9013 2.13642L15.1273 2.39443C14.9568 2.45115 14.8018 2.54685 14.6748 2.67392C14.5477 2.80099 14.452 2.95594 14.3953 3.12646L14.1373 3.90049C14.1274 3.92896 14.1089 3.95366 14.0843 3.97113C14.0598 3.98861 14.0304 3.998 14.0002 3.998C13.9701 3.998 13.9407 3.98861 13.9162 3.97113C13.8916 3.95366 13.8731 3.92896 13.8632 3.90049L13.6052 3.12646C13.5485 2.95594 13.4528 2.80099 13.3257 2.67392C13.1987 2.54685 13.0437 2.45115 12.8732 2.39443L12.0992 2.13642C12.0707 2.12654 12.046 2.10804 12.0285 2.08349C12.011 2.05894 12.0017 2.02955 12.0017 1.99941C12.0017 1.96927 12.011 1.93988 12.0285 1.91533C12.046 1.89078 12.0707 1.87228 12.0992 1.8624L12.8732 1.60439C13.2192 1.48939 13.4902 1.21838 13.6052 0.872363L13.8632 0.0993307V0.0983307Z" fill="black"/>
</svg>
