<svg width="117" height="87" viewBox="0 0 117 87" fill="none" xmlns="http://www.w3.org/2000/svg">
<g clip-path="url(#clip0_21_135)">
<path d="M100.673 50.0767C96.603 50.0975 93.0653 51.0695 90.1035 52.5064C89.0162 50.3721 87.9295 48.4708 87.738 47.0761C87.5246 45.4494 87.2691 44.4561 87.5246 42.5122C87.7805 40.5683 88.9312 37.8002 88.9098 37.589C88.8887 37.3779 88.6538 36.3846 86.3098 36.3638C83.9658 36.3425 81.9413 36.8074 81.7068 37.42C81.4724 38.0326 81.025 39.4274 80.7266 40.8638C80.3216 42.9771 76.0386 50.5199 73.5881 54.4711C72.7993 52.9291 72.1174 51.5765 71.968 50.499C71.755 48.8723 71.4991 47.879 71.755 45.9351C72.0109 43.9912 73.1617 41.2235 73.1402 41.0119C73.1187 40.8008 72.8843 39.8075 70.5403 39.7867C68.1958 39.7654 66.1713 40.2303 65.9373 40.8429C65.7029 41.456 65.4469 42.8924 64.957 44.2871C64.4667 45.6818 58.7769 58.2751 57.2852 61.5285C56.6824 62.8454 56.0501 64.1487 55.3886 65.4376C55.3886 65.4376 55.3672 65.5011 55.3032 65.6067C55.0954 66.0108 54.8824 66.4123 54.6643 66.8111V66.8319C54.3444 67.4028 54.0035 67.9307 53.833 67.9307C53.705 67.9307 53.4706 66.4096 53.8755 64.3388C54.7278 59.9652 56.7524 53.1616 56.7313 52.9291C56.7313 52.8022 57.1148 51.6191 55.4101 51.0061C53.7475 50.3934 53.1511 51.4075 53.0017 51.4075C52.8527 51.4075 52.7458 51.7669 52.7458 51.7669C52.7458 51.7669 54.6003 44.1181 49.2085 44.1181C45.8417 44.1181 41.1958 47.7735 38.8943 51.0695C36.278 52.4812 33.6639 53.8969 31.052 55.3166C29.7953 56.014 28.4951 56.7114 27.2803 57.3661C27.1949 57.2818 27.1099 57.1758 27.0244 57.0915C20.5034 50.1823 8.442 45.3012 8.95339 36.0257C9.14534 32.645 10.3171 23.7705 32.1178 12.9948C50.0608 4.22589 64.3392 6.65555 66.8111 12.0437C70.3484 19.735 59.1608 34.0184 40.6204 36.0887C33.5455 36.8708 29.8373 34.1661 28.9 33.152C27.9197 32.0953 27.7703 32.0319 27.4079 32.2435C26.8115 32.5607 27.1949 33.5114 27.4079 34.0605C27.9622 35.497 30.2422 38.0326 34.0994 39.2796C37.5091 40.378 45.7988 40.9911 55.8361 37.1454C67.0666 32.8348 75.8466 20.8547 73.2682 10.8184C70.6893 0.633969 53.641 -2.7255 37.5091 2.95805C27.9197 6.33927 17.52 11.6635 10.0402 18.594C1.15363 26.8341 -0.253039 33.9971 0.322334 36.9977C2.38984 47.6466 17.2006 54.5771 23.1248 59.7115C22.8263 59.8805 22.5489 60.0287 22.3149 60.1556C19.3526 61.6133 8.05811 67.4658 5.24523 73.6569C2.04891 80.6717 5.75708 85.7009 8.20756 86.3765C15.8154 88.4686 23.6362 84.7077 27.8342 78.4953C32.0323 72.2834 31.5209 64.2119 29.5818 60.5144C29.5604 60.4723 29.5393 60.4297 29.4964 60.3876C30.2637 59.9439 31.052 59.479 31.8194 59.0354C33.2296 58.2088 34.6578 57.4127 36.1029 56.6475C35.3781 58.6127 34.8452 60.958 34.5897 64.3388C34.2698 68.3114 35.9105 73.4666 38.063 75.4947C39.0223 76.3829 40.1515 76.4037 40.8763 76.4037C43.3908 76.4037 44.5205 74.3329 45.7778 71.882C47.3119 68.8818 48.6971 65.3955 48.6971 65.3955C48.6971 65.3955 46.971 74.8191 51.6595 74.8191C53.3641 74.8191 55.0902 72.6215 55.8575 71.5018V71.5227C55.8575 71.5227 55.9 71.4592 55.9855 71.3115C56.156 71.0369 56.2624 70.8674 56.2624 70.8674V70.8257C56.9443 69.6422 58.4789 66.9588 60.7589 62.5005C63.6998 56.7535 66.5342 49.5697 66.5342 49.5697C66.5342 49.5697 66.7901 51.3232 67.6634 54.2391C68.1753 55.9506 69.2401 57.831 70.0929 59.6481C69.411 60.5992 68.9846 61.1271 68.9846 61.1271L69.0061 61.1484C68.4518 61.8666 67.8554 62.6482 67.1945 63.4095C64.8716 66.1558 62.1016 69.3046 61.7178 70.2127C61.2699 71.2902 61.3768 72.0723 62.2296 72.7062C62.8475 73.1711 63.9553 73.2341 65.085 73.1711C67.1735 73.0229 68.6437 72.5159 69.3681 72.1992C70.4978 71.7977 71.819 71.1846 73.0548 70.2761C75.3352 68.6068 76.72 66.2193 76.5925 63.0714C76.5285 61.3387 75.9531 59.6059 75.2498 57.9787C75.4632 57.6833 75.6547 57.3874 75.8681 57.0915C79.4693 51.8724 82.2612 46.1463 82.2612 46.1463C82.2612 46.1463 82.5171 47.8999 83.3905 50.8162C83.8168 52.2952 84.6907 53.9011 85.4575 55.4644C82.0693 58.1904 79.9807 61.3595 79.2349 63.4303C77.8926 67.276 78.9365 69.0083 80.9185 69.4097C81.8133 69.6 83.092 69.1773 84.0298 68.7758C85.2231 68.3956 86.6297 67.7409 87.9724 66.7685C90.2529 65.0996 92.4474 62.7751 92.3195 59.6272C92.2555 58.1904 91.8721 56.7743 91.3392 55.4009C94.2161 54.2183 97.9242 53.563 102.655 54.1122C112.799 55.2953 114.802 61.5707 114.418 64.2124C114.035 66.8532 111.904 68.2901 111.201 68.7337C110.497 69.1777 110.263 69.3254 110.327 69.6422C110.412 70.1071 110.753 70.0862 111.35 70.0015C112.181 69.8538 116.678 67.8673 116.869 63.0075C117.189 56.7956 111.222 50.0133 100.673 50.0767ZM22.4214 76.2347C19.0542 79.8688 14.3662 81.2422 12.3417 80.0804C10.1681 78.8334 11.0204 73.4666 15.1545 69.6213C17.669 67.276 20.9083 65.0992 23.0608 63.7683C23.5507 63.4724 24.2755 63.0501 25.1493 62.5218C25.2983 62.437 25.3838 62.3949 25.3838 62.3949L25.8952 62.0777C27.4078 67.5714 25.9591 72.4103 22.4214 76.2347ZM46.9285 59.7115C45.7563 62.5431 43.3058 69.7904 41.8141 69.3889C40.5354 69.0509 39.7466 63.5572 41.5582 58.1269C42.4745 55.4009 44.4136 52.147 45.5433 50.8796C47.3759 48.851 49.4005 48.1745 49.8904 48.9992C50.5087 50.0767 47.6529 57.9366 46.9285 59.7115ZM67.152 69.3042C66.6617 69.5579 66.1932 69.7269 65.9798 69.6C65.8308 69.5153 66.1932 69.1773 66.1932 69.1773C66.1932 69.1773 68.7292 66.473 69.7305 65.2473C70.3063 64.5291 70.9877 63.684 71.7125 62.7329V63.0075C71.7125 66.2406 68.5583 68.4169 67.1516 69.3042H67.152ZM82.7511 65.7757C82.3887 65.5219 82.4527 64.6768 83.6674 62.0356C84.1363 61.0002 85.2441 59.2679 87.1411 57.5986C87.3541 58.2746 87.5035 58.9299 87.4821 59.5425C87.4606 63.6206 84.5202 65.1417 82.7511 65.7757Z" fill="#CD6799"/>
</g>
<defs>
<clipPath id="clip0_21_135">
<rect width="117" height="87" fill="white"/>
</clipPath>
</defs>
</svg>
