<svg width="115" height="69" viewBox="0 0 115 69" fill="none" xmlns="http://www.w3.org/2000/svg">
<path d="M28.8438 23.0844C32.6646 7.80109 42.2167 0.159424 57.5 0.159424C80.425 0.159424 83.2906 17.3532 94.7531 20.2188C102.395 22.1292 109.081 19.2636 114.812 11.6219C110.992 26.9053 101.44 34.5469 86.1562 34.5469C63.2313 34.5469 60.3656 17.3532 48.9031 14.4875C41.2615 12.5771 34.575 15.4428 28.8438 23.0844ZM0.1875 57.4719C4.00833 42.1886 13.5604 34.5469 28.8438 34.5469C51.7687 34.5469 54.6344 51.7407 66.0969 54.6063C73.7385 56.5167 80.425 53.6511 86.1562 46.0094C82.3354 61.2928 72.7833 68.9344 57.5 68.9344C34.575 68.9344 31.7094 51.7407 20.2469 48.875C12.6052 46.9646 5.91875 49.8303 0.1875 57.4719Z" fill="#44A8B3"/>
</svg>
