<svg width="30" height="30" viewBox="0 0 30 30" fill="none" xmlns="http://www.w3.org/2000/svg">
<g clip-path="url(#clip0_335_9)">
<path fill-rule="evenodd" clip-rule="evenodd" d="M29.4231 15C29.4231 22.9656 22.9656 29.4231 15 29.4231C7.03433 29.4231 0.576904 22.9656 0.576904 15C0.576904 7.03435 7.03433 0.57692 15 0.57692C22.9656 0.57692 29.4231 7.03435 29.4231 15ZM15.5168 11.2247C14.114 11.8082 11.3102 13.0158 7.10561 14.8477C6.42284 15.1193 6.06517 15.3849 6.03262 15.6446C5.9776 16.0836 6.52727 16.2564 7.27577 16.4918C7.3776 16.5238 7.48309 16.557 7.59124 16.592C8.32765 16.8314 9.31827 17.1115 9.83325 17.1226C10.3004 17.1327 10.8218 16.9402 11.3974 16.5449C15.3259 13.893 17.3538 12.5527 17.481 12.5237C17.5709 12.5034 17.6954 12.4777 17.7797 12.5527C17.8641 12.6277 17.8557 12.7696 17.8468 12.8077C17.7924 13.0399 15.6347 15.0459 14.5181 16.0839C14.1701 16.4075 13.9232 16.637 13.8727 16.6895C13.7596 16.8069 13.6444 16.918 13.5336 17.0247C12.8495 17.6843 12.3363 18.1788 13.562 18.9865C14.151 19.3747 14.6222 19.6956 15.0924 20.0158C15.6059 20.3655 16.1181 20.7143 16.7808 21.1487C16.9495 21.2593 17.1108 21.3743 17.2679 21.4862C17.8654 21.9123 18.4022 22.295 19.0656 22.2339C19.4509 22.1986 19.849 21.8361 20.0512 20.7552C20.5291 18.2009 21.4683 12.6663 21.6854 10.3858C21.7044 10.186 21.6805 9.93026 21.6613 9.818C21.642 9.70575 21.6019 9.54579 21.4559 9.42739C21.2831 9.28717 21.0164 9.25761 20.897 9.25961C20.3545 9.26928 19.5222 9.55867 15.5168 11.2247Z" fill="#666666"/>
</g>
<defs>
<clipPath id="clip0_335_9">
<rect width="30" height="30" fill="white"/>
</clipPath>
</defs>
</svg>
